<?xml version="1.0" standalone="no"?>
<!DOCTYPE svg PUBLIC "-//W3C//DTD SVG 20010904//EN"
 "http://www.w3.org/TR/2001/REC-SVG-20010904/DTD/svg10.dtd">
<svg version="1.0" xmlns="http://www.w3.org/2000/svg"
 width="64.000000pt" height="64.000000pt" viewBox="0 0 64.000000 64.000000"
 preserveAspectRatio="xMidYMid meet">

<g transform="translate(0.000000,64.000000) scale(0.100000,-0.100000)"
fill="#000000" stroke="none">
<path d="M63 616 c-97 -82 -76 -238 52 -397 167 -206 398 -278 501 -156 35 42
28 87 -23 140 -71 74 -123 79 -186 19 l-28 -26 -91 92 -92 91 26 28 c60 63 55
115 -19 186 -53 51 -98 58 -140 23z"/>
<path d="M310 632 c0 -6 19 -13 42 -17 136 -23 240 -127 263 -263 4 -23 11
-42 17 -42 16 0 1 76 -26 135 -33 73 -79 120 -149 155 -67 32 -147 50 -147 32z"/>
<path d="M310 541 c0 -5 17 -12 37 -16 53 -10 84 -28 126 -74 31 -35 57 -92
57 -128 0 -7 5 -13 10 -13 13 0 13 24 -2 74 -16 55 -99 138 -154 154 -49 14
-74 15 -74 3z"/>
<path d="M310 453 c0 -6 14 -13 31 -17 39 -7 88 -56 95 -95 7 -32 24 -43 24
-15 0 29 -32 84 -60 104 -33 23 -90 37 -90 23z"/>
</g>
</svg>
